<svg xmlns="http://www.w3.org/2000/svg" viewBox="0 0 100 100">
  <defs>
    <linearGradient id="g" x1="0%" y1="0%" x2="100%" y2="100%">
      <stop offset="0%" stop-color="#00c8ff"/>
      <stop offset="100%" stop-color="#7c6fff"/>
    </linearGradient>
  </defs>

  <!-- Dark background circle -->
  <rect width="100" height="100" rx="18" fill="#04080f"/>

  <!-- Hex frame -->
  <polygon points="50,8 82,26 82,62 50,80 18,62 18,26"
    fill="none" stroke="#00c8ff" stroke-width="1.5" opacity="0.55"/>

  <!-- Inner hex subtle ring -->
  <polygon points="50,14 76,29 76,59 50,74 24,59 24,29"
    fill="none" stroke="#7c6fff" stroke-width="0.8" opacity="0.3" stroke-dasharray="3 3"/>

  <!-- S glyph -->
  <path d="M 33 34 C 26 34 23 38 23 43 C 23 48 27 51 34 52.5 C 41 54 44.5 57 44.5 62 C 44.5 67 41 70 34 70 L 26 70"
    fill="none" stroke="url(#g)" stroke-width="5.5" stroke-linecap="round" stroke-linejoin="round"/>
  <path d="M 44.5 34 L 27 34"
    fill="none" stroke="url(#g)" stroke-width="5.5" stroke-linecap="round"/>

  <!-- B glyph -->
  <path d="M 50 34 L 50 70" fill="none" stroke="url(#g)" stroke-width="5.5" stroke-linecap="round"/>
  <path d="M 50 34 L 64 34 C 71 34 74 38 74 43 C 74 48 71 52 64 52 L 50 52"
    fill="none" stroke="url(#g)" stroke-width="5.5" stroke-linecap="round" stroke-linejoin="round"/>
  <path d="M 50 52 L 65 52 C 73 52 77 56 77 62 C 77 68 73 70 65 70 L 50 70"
    fill="none" stroke="url(#g)" stroke-width="5.5" stroke-linecap="round" stroke-linejoin="round"/>

  <!-- Accent dot -->
  <circle cx="79" cy="70" r="3" fill="#7c6fff"/>

  <!-- Corner circuit marks -->
  <path d="M 8 18 L 8 10 L 16 10" fill="none" stroke="#00c8ff" stroke-width="1.2" opacity="0.55"/>
  <path d="M 92 18 L 92 10 L 84 10" fill="none" stroke="#00c8ff" stroke-width="1.2" opacity="0.55"/>
  <path d="M 8 82 L 8 90 L 16 90" fill="none" stroke="#00c8ff" stroke-width="1.2" opacity="0.55"/>
  <path d="M 92 82 L 92 90 L 84 90" fill="none" stroke="#00c8ff" stroke-width="1.2" opacity="0.55"/>
</svg>
